<?xml version="1.0" encoding="UTF-8" standalone="no"?>
<svg
   viewBox="0 0 292.69 68.08"
   version="1.1"
   id="svg106"
   sodipodi:docname="logo_KMK_nieb.svg"
   inkscape:version="1.1.2 (b8e25be833, 2022-02-05)"
   xmlns:inkscape="http://www.inkscape.org/namespaces/inkscape"
   xmlns:sodipodi="http://sodipodi.sourceforge.net/DTD/sodipodi-0.dtd"
   xmlns="http://www.w3.org/2000/svg"
   xmlns:svg="http://www.w3.org/2000/svg">
  <sodipodi:namedview
     id="namedview108"
     pagecolor="#505050"
     bordercolor="#eeeeee"
     borderopacity="1"
     inkscape:pageshadow="0"
     inkscape:pageopacity="0"
     inkscape:pagecheckerboard="0"
     showgrid="false"
     inkscape:zoom="4.5987222"
     inkscape:cx="146.23627"
     inkscape:cy="34.031192"
     inkscape:window-width="3440"
     inkscape:window-height="1361"
     inkscape:window-x="-9"
     inkscape:window-y="-9"
     inkscape:window-maximized="1"
     inkscape:current-layer="svg106" />
  <defs
     id="defs4">
    <style
       id="style2">.cls-1{fill:#0064a7;}</style>
  </defs>
  <title
     id="title6">ztp-logo-full</title>
  <g
     id="g86"
     transform="matrix(1,0,0,0.99970631,-47.41,-47.146153)"
     style="fill:#0064a7;fill-opacity:1">
    <g
       id="g28"
       style="fill:#0064a7;fill-opacity:1">
      <path
         class="st1"
         d="m 97.16,48.95 v 0.07 -0.03 z m 0,15.53 V 49.02 c 0.02,-0.54 0.47,-0.97 1.01,-0.96 5.28,0.32 10.07,0.79 14.17,1.36 h 0.01 c 0.38,0.05 0.7,0.31 0.82,0.68 v 0 0.02 c 0.01,0.04 0.02,0.08 0.03,0.12 l 0.01,0.03 c 0.02,0.11 0.04,0.23 0.06,0.37 0.5,3.43 1.03,8.84 1.31,13.74 0,0 0.06,1.1 -1.04,1.1 h -11.97 -3.42 c -0.54,0 -0.99,-0.45 -0.99,-1"
         id="path6"
         style="fill:#0064a7;fill-opacity:1" />
      <path
         class="st1"
         d="m 65.31,113.79 v -16.46 0.99 c 0,-0.55 -0.45,-0.99 -1,-0.99 H 60.9 48.93 c -1.1,0 -1.04,1.1 -1.04,1.1 0.28,4.91 0.8,10.32 1.31,13.74 0.02,0.14 0.04,0.27 0.06,0.37 l 0.01,0.03 c 0.01,0.04 0.02,0.08 0.03,0.12 v 0.02 0 c 0.12,0.36 0.43,0.63 0.81,0.68 4.11,0.58 8.91,1.05 14.2,1.37 0.54,0 0.98,-0.43 1,-0.97 m 0,0.01 v 0 0 0"
         id="path8-1"
         style="fill:#0064a7;fill-opacity:1" />
      <path
         class="st1"
         d="m 83.23,64.38 c 0,0 0,1.1 1.1,1.1 h 7.76 c 0,0 1.1,0 1.1,-1.1 V 61.25 48.9 c 0,0 0,-1.1 -1.1,-1.14 -2.1,-0.09 -5.43,-0.16 -7.76,-0.18 0,0 -1.1,-0.01 -1.1,1.09 v 12.82 2.89"
         id="path10-5"
         style="fill:#0064a7;fill-opacity:1" />
      <path
         class="st1"
         d="m 81.24,114.15 v -16.49 0 0.66 c 0,-0.55 -0.45,-0.99 -1,-0.99 h 0.66 -0.66 -9.85 c 0,0 -1.1,0 -1.1,1.1 v 3.12 12.36 c 0,0 0,1.1 1.1,1.14 2.71,0.11 6.72,0.2 9.75,0.2 0,0 1.1,0 1.1,-1.1"
         id="path12-7"
         style="fill:#0064a7;fill-opacity:1" />
      <path
         class="st1"
         d="m 69.29,64.38 c 0,0 0,1.1 1.1,1.1 h 7.76 c 0,0 1.1,0 1.1,-1.1 V 48.67 c 0,0 0,-1.1 -1.1,-1.09 -2.33,0.02 -5.66,0.1 -7.76,0.18 0,0 -1.1,0.05 -1.1,1.14 v 12.36 3.12"
         id="path14-2"
         style="fill:#0064a7;fill-opacity:1" />
      <path
         class="st1"
         d="m 61.09,93.35 h 3.12 c 0,0 1.1,0 1.1,-1.1 v -7.76 c 0,0 0,-1.1 -1.1,-1.1 H 48.5 c 0,0 -1.1,0 -1.09,1.1 0.02,2.33 0.09,5.66 0.18,7.76 0,0 0.05,1.1 1.14,1.1 h 12.36"
         id="path16-4"
         style="fill:#0064a7;fill-opacity:1" />
      <path
         class="st1"
         d="m 47.41,78.32 c 0,0 -0.01,1.1 1.09,1.1 h 15.71 c 0,0 1.1,0 1.1,-1.1 v -7.76 c 0,0 0,-1.1 -1.1,-1.1 H 61.09 48.73 c 0,0 -1.1,0 -1.14,1.1 -0.09,2.09 -0.16,5.43 -0.18,7.76"
         id="path18-7"
         style="fill:#0064a7;fill-opacity:1" />
      <path
         class="st1"
         d="m 65.31,48.95 v 0.07 -0.03 z m 0,15.53 V 49.02 c -0.02,-0.54 -0.47,-0.97 -1.01,-0.96 -5.28,0.32 -10.07,0.79 -14.17,1.36 h -0.01 c -0.38,0.05 -0.7,0.31 -0.82,0.68 v 0 0.02 c -0.01,0.04 -0.02,0.08 -0.03,0.12 l -0.01,0.03 c -0.02,0.11 -0.03,0.23 -0.05,0.37 -0.51,3.43 -1.03,8.84 -1.31,13.74 0,0 -0.06,1.1 1.04,1.1 h 11.96 3.42 c 0.55,0 0.99,-0.45 0.99,-1"
         id="path20-0"
         style="fill:#0064a7;fill-opacity:1" />
      <path
         class="st1"
         d="m 97.16,93.42 c 0,0 0,1.1 0.78,1.87 0,0 -0.78,-0.78 14.74,14.74 0,0 0.78,0.77 0.92,-0.31 0.75,-5.91 1.33,-14.69 1.45,-23.23 0,0 0.02,-1.1 -1.08,-1.1 H 98.05 c 0,0 -0.89,0 -0.89,0.88 v 1.11 2.99 1.76 1.29"
         id="path22-5"
         style="fill:#0064a7;fill-opacity:1" />
      <path
         class="st1"
         d="m 115.08,80.43 c -0.01,-3.78 -0.09,-7.37 -0.19,-9.87 0,0 -0.04,-1.1 -1.14,-1.1 H 98.26 c 0,0 -1.1,0 -1.1,1.1 v 6.87 2.88 c 0,0 0,1.1 1.1,1.1 h 15.82 c 0.55,0 0.99,-0.44 1,-0.98"
         id="path24-0"
         style="fill:#0064a7;fill-opacity:1" />
      <path
         class="st1"
         d="M 109.86,112.84 C 99.17,102.16 95.85,98.83 94.81,97.8 94.48,97.48 94.11,97.31 93.79,97.33 v 0 h -7.48 c 0,0 -1.1,0 -1.1,1.1 v 15.69 c 0,0 0,1.1 1.1,1.08 8.54,-0.11 17.32,-0.69 23.23,-1.45 0.01,0.01 1.1,-0.13 0.32,-0.91"
         id="path26-2"
         style="fill:#0064a7;fill-opacity:1" />
    </g>
    <g
       id="g84"
       style="fill:#0064a7;fill-opacity:1">
      <path
         class="st1"
         d="m 156.76,64.23 c -0.32,-0.5 -0.69,-1.03 -1.11,-1.61 -0.42,-0.58 -0.89,-1.16 -1.38,-1.74 -0.49,-0.58 -1.01,-1.15 -1.55,-1.68 -0.54,-0.53 -1.08,-1.01 -1.62,-1.42 v 6.46 h -3.5 V 48.98 h 3.5 v 5.73 c 0.9,-0.93 1.81,-1.9 2.74,-2.91 0.93,-1.01 1.79,-1.95 2.57,-2.82 h 4.15 c -1.06,1.24 -2.12,2.42 -3.19,3.56 -1.07,1.14 -2.2,2.29 -3.38,3.44 1.24,1.02 2.44,2.22 3.6,3.62 1.16,1.4 2.27,2.94 3.33,4.62 h -4.16 z"
         id="path30-1"
         style="fill:#0064a7;fill-opacity:1" />
      <path
         class="st1"
         d="m 172.86,58.42 c 0,0.91 -0.13,1.74 -0.4,2.5 -0.27,0.75 -0.66,1.4 -1.17,1.94 -0.51,0.54 -1.12,0.95 -1.83,1.24 -0.71,0.29 -1.51,0.44 -2.39,0.44 -0.87,0 -1.66,-0.15 -2.37,-0.44 -0.71,-0.29 -1.32,-0.71 -1.83,-1.24 -0.51,-0.54 -0.91,-1.18 -1.19,-1.94 -0.29,-0.76 -0.43,-1.59 -0.43,-2.5 0,-0.91 0.15,-1.74 0.44,-2.49 0.29,-0.75 0.7,-1.39 1.21,-1.91 0.52,-0.53 1.13,-0.94 1.84,-1.23 0.71,-0.29 1.48,-0.44 2.32,-0.44 0.85,0 1.63,0.15 2.35,0.44 0.71,0.29 1.32,0.7 1.83,1.23 0.51,0.53 0.91,1.17 1.19,1.91 0.28,0.74 0.43,1.58 0.43,2.49 z m -3.41,0 c 0,-1.01 -0.21,-1.81 -0.62,-2.39 -0.41,-0.58 -1,-0.87 -1.76,-0.87 -0.76,0 -1.35,0.29 -1.77,0.87 -0.42,0.58 -0.63,1.38 -0.63,2.39 0,1.01 0.21,1.81 0.63,2.41 0.42,0.59 1.01,0.89 1.77,0.89 0.76,0 1.35,-0.3 1.76,-0.89 0.41,-0.6 0.62,-1.4 0.62,-2.41 z"
         id="path32-2"
         style="fill:#0064a7;fill-opacity:1" />
      <path
         class="st1"
         d="m 181.93,58.09 c 0,-1.06 -0.14,-1.8 -0.42,-2.24 -0.28,-0.44 -0.75,-0.66 -1.42,-0.66 -0.21,0 -0.43,0.01 -0.65,0.03 -0.22,0.02 -0.44,0.05 -0.65,0.08 v 8.93 h -3.34 V 53.05 c 0.28,-0.07 0.62,-0.15 1,-0.23 0.38,-0.08 0.79,-0.15 1.21,-0.22 0.43,-0.07 0.86,-0.12 1.31,-0.15 0.45,-0.04 0.89,-0.06 1.32,-0.06 0.85,0 1.54,0.11 2.08,0.32 0.54,0.21 0.97,0.47 1.31,0.76 0.48,-0.34 1.03,-0.6 1.65,-0.79 0.62,-0.19 1.19,-0.29 1.72,-0.29 0.94,0 1.72,0.13 2.32,0.38 0.61,0.26 1.09,0.62 1.45,1.09 0.36,0.47 0.61,1.03 0.74,1.67 0.13,0.64 0.2,1.36 0.2,2.16 v 6.53 h -3.34 v -6.14 c 0,-1.06 -0.14,-1.8 -0.42,-2.24 -0.28,-0.44 -0.75,-0.66 -1.42,-0.66 -0.18,0 -0.43,0.04 -0.75,0.13 -0.32,0.09 -0.59,0.2 -0.8,0.33 0.1,0.34 0.17,0.69 0.2,1.07 0.03,0.38 0.04,0.77 0.04,1.2 v 6.31 h -3.34 z"
         id="path34-4"
         style="fill:#0064a7;fill-opacity:1" />
      <path
         class="st1"
         d="m 204.86,63.83 c -0.57,0.16 -1.3,0.31 -2.2,0.45 -0.9,0.14 -1.84,0.21 -2.83,0.21 -1,0 -1.84,-0.13 -2.5,-0.4 -0.67,-0.26 -1.19,-0.63 -1.58,-1.11 -0.39,-0.48 -0.67,-1.04 -0.83,-1.71 -0.16,-0.66 -0.25,-1.39 -0.25,-2.18 v -6.45 h 3.34 v 6.05 c 0,1.06 0.14,1.82 0.43,2.29 0.28,0.47 0.82,0.7 1.59,0.7 0.24,0 0.49,-0.01 0.76,-0.03 0.27,-0.02 0.51,-0.05 0.72,-0.08 v -8.93 h 3.34 v 11.19 z"
         id="path36-4"
         style="fill:#0064a7;fill-opacity:1" />
      <path
         class="st1"
         d="m 208,53.05 c 0.57,-0.16 1.3,-0.31 2.2,-0.45 0.9,-0.14 1.84,-0.21 2.83,-0.21 1,0 1.84,0.13 2.5,0.38 0.67,0.26 1.19,0.62 1.58,1.09 0.39,0.47 0.67,1.03 0.83,1.67 0.16,0.65 0.25,1.36 0.25,2.16 v 6.53 h -3.34 v -6.14 c 0,-1.06 -0.14,-1.8 -0.43,-2.24 -0.28,-0.44 -0.82,-0.66 -1.59,-0.66 -0.24,0 -0.49,0.01 -0.76,0.03 -0.27,0.02 -0.51,0.05 -0.72,0.08 v 8.93 H 208 Z"
         id="path38-9"
         style="fill:#0064a7;fill-opacity:1" />
      <path
         class="st1"
         d="m 224.88,49.31 c 0,0.6 -0.2,1.08 -0.59,1.42 -0.4,0.34 -0.86,0.52 -1.4,0.52 -0.54,0 -1.01,-0.17 -1.4,-0.52 -0.4,-0.34 -0.59,-0.82 -0.59,-1.42 0,-0.6 0.2,-1.07 0.59,-1.42 0.4,-0.34 0.86,-0.52 1.4,-0.52 0.54,0 1.01,0.17 1.4,0.52 0.39,0.35 0.59,0.82 0.59,1.42 z m -0.32,14.92 h -3.34 V 52.65 h 3.34 z"
         id="path40-4"
         style="fill:#0064a7;fill-opacity:1" />
      <path
         class="st1"
         d="m 231.05,56.81 c 0.33,-0.35 0.67,-0.71 1.02,-1.09 0.35,-0.38 0.69,-0.75 1.02,-1.13 0.33,-0.37 0.64,-0.73 0.93,-1.06 0.29,-0.33 0.54,-0.63 0.75,-0.87 h 3.98 c -0.79,0.89 -1.57,1.75 -2.32,2.56 -0.76,0.81 -1.58,1.65 -2.48,2.51 0.45,0.4 0.91,0.87 1.39,1.42 0.48,0.55 0.94,1.12 1.39,1.71 0.45,0.59 0.86,1.17 1.23,1.76 0.37,0.59 0.69,1.12 0.94,1.61 h -3.84 c -0.24,-0.38 -0.51,-0.8 -0.82,-1.27 -0.31,-0.46 -0.63,-0.93 -0.97,-1.39 -0.34,-0.46 -0.71,-0.91 -1.09,-1.33 -0.38,-0.43 -0.76,-0.79 -1.13,-1.08 v 5.07 h -3.34 V 47.68 l 3.34,-0.53 z"
         id="path42-9"
         style="fill:#0064a7;fill-opacity:1" />
      <path
         class="st1"
         d="m 244.71,52.35 c 0.99,0 1.81,0.11 2.47,0.33 0.66,0.22 1.19,0.54 1.58,0.95 0.4,0.41 0.68,0.91 0.84,1.5 0.16,0.59 0.25,1.24 0.25,1.96 v 6.82 c -0.48,0.1 -1.14,0.22 -2,0.36 -0.85,0.14 -1.88,0.21 -3.1,0.21 -0.76,0 -1.46,-0.07 -2.08,-0.2 -0.62,-0.13 -1.16,-0.35 -1.6,-0.65 -0.45,-0.3 -0.79,-0.69 -1.03,-1.18 -0.24,-0.48 -0.36,-1.08 -0.36,-1.78 0,-0.67 0.14,-1.25 0.42,-1.72 0.28,-0.47 0.65,-0.84 1.11,-1.12 0.46,-0.28 0.99,-0.48 1.59,-0.61 0.6,-0.12 1.22,-0.19 1.86,-0.19 0.43,0 0.82,0.02 1.16,0.05 0.34,0.04 0.61,0.08 0.82,0.14 v -0.31 c 0,-0.56 -0.17,-1 -0.52,-1.34 -0.34,-0.34 -0.94,-0.51 -1.79,-0.51 -0.57,0 -1.13,0.04 -1.68,0.12 -0.55,0.08 -1.03,0.19 -1.44,0.34 l -0.43,-2.64 c 0.19,-0.06 0.44,-0.12 0.73,-0.19 0.29,-0.07 0.61,-0.12 0.95,-0.18 0.34,-0.05 0.71,-0.1 1.09,-0.13 0.39,-0.02 0.77,-0.03 1.16,-0.03 z m 0.27,9.59 c 0.33,0 0.64,-0.01 0.94,-0.02 0.3,-0.01 0.54,-0.04 0.72,-0.07 v -2.49 c -0.13,-0.03 -0.34,-0.06 -0.61,-0.09 -0.27,-0.03 -0.52,-0.04 -0.74,-0.04 -0.31,0 -0.61,0.02 -0.89,0.06 -0.28,0.04 -0.52,0.11 -0.73,0.21 -0.21,0.1 -0.37,0.24 -0.49,0.42 -0.12,0.18 -0.18,0.4 -0.18,0.66 0,0.51 0.18,0.87 0.53,1.07 0.35,0.2 0.84,0.29 1.45,0.29 z"
         id="path44-8"
         style="fill:#0064a7;fill-opacity:1" />
      <path
         class="st1"
         d="m 252.32,58.44 c 0,-0.84 0.14,-1.62 0.42,-2.36 0.28,-0.74 0.68,-1.39 1.2,-1.94 0.52,-0.55 1.16,-0.99 1.91,-1.31 0.75,-0.32 1.6,-0.48 2.56,-0.48 0.63,0 1.2,0.05 1.73,0.17 0.52,0.11 1.03,0.27 1.53,0.47 l -0.7,2.62 c -0.31,-0.12 -0.66,-0.22 -1.03,-0.31 -0.37,-0.09 -0.79,-0.13 -1.26,-0.13 -0.99,0 -1.72,0.3 -2.21,0.9 -0.49,0.6 -0.73,1.39 -0.73,2.38 0,1.04 0.23,1.85 0.68,2.42 0.46,0.57 1.25,0.86 2.39,0.86 0.4,0 0.84,-0.04 1.3,-0.11 0.46,-0.07 0.89,-0.19 1.28,-0.35 l 0.47,2.68 c -0.39,0.16 -0.88,0.3 -1.46,0.42 -0.58,0.12 -1.23,0.18 -1.93,0.18 -1.08,0 -2,-0.16 -2.78,-0.47 -0.78,-0.31 -1.42,-0.74 -1.92,-1.29 -0.5,-0.54 -0.87,-1.18 -1.1,-1.92 -0.23,-0.76 -0.35,-1.56 -0.35,-2.43 z"
         id="path46-6"
         style="fill:#0064a7;fill-opacity:1" />
      <path
         class="st1"
         d="m 263,68.3 c -0.21,0 -0.52,-0.02 -0.93,-0.07 -0.41,-0.05 -0.8,-0.12 -1.16,-0.24 l 0.45,-2.66 c 0.22,0.07 0.43,0.12 0.62,0.15 0.19,0.03 0.42,0.04 0.71,0.04 0.52,0 0.89,-0.15 1.1,-0.46 0.21,-0.31 0.31,-0.75 0.31,-1.34 V 52.65 h 3.34 V 63.8 c 0,1.53 -0.38,2.65 -1.14,3.39 -0.76,0.74 -1.86,1.11 -3.3,1.11 z m 4.76,-18.99 c 0,0.6 -0.2,1.08 -0.59,1.42 -0.4,0.34 -0.86,0.52 -1.4,0.52 -0.54,0 -1.01,-0.17 -1.4,-0.52 -0.4,-0.34 -0.59,-0.82 -0.59,-1.42 0,-0.6 0.2,-1.07 0.59,-1.42 0.4,-0.34 0.86,-0.52 1.4,-0.52 0.54,0 1.01,0.17 1.4,0.52 0.39,0.35 0.59,0.82 0.59,1.42 z"
         id="path48-2"
         style="fill:#0064a7;fill-opacity:1" />
      <path
         class="st1"
         d="m 274.83,52.35 c 0.99,0 1.81,0.11 2.47,0.33 0.66,0.22 1.19,0.54 1.58,0.95 0.4,0.41 0.68,0.91 0.84,1.5 0.16,0.59 0.25,1.24 0.25,1.96 v 6.82 c -0.48,0.1 -1.14,0.22 -2,0.36 -0.85,0.14 -1.88,0.21 -3.1,0.21 -0.76,0 -1.46,-0.07 -2.08,-0.2 -0.62,-0.13 -1.16,-0.35 -1.6,-0.65 -0.45,-0.3 -0.79,-0.69 -1.03,-1.18 -0.24,-0.48 -0.36,-1.08 -0.36,-1.78 0,-0.67 0.14,-1.25 0.42,-1.72 0.28,-0.47 0.65,-0.84 1.11,-1.12 0.46,-0.28 0.99,-0.48 1.59,-0.61 0.6,-0.12 1.22,-0.19 1.86,-0.19 0.43,0 0.82,0.02 1.16,0.05 0.34,0.04 0.61,0.08 0.82,0.14 v -0.31 c 0,-0.56 -0.17,-1 -0.52,-1.34 -0.34,-0.34 -0.94,-0.51 -1.79,-0.51 -0.57,0 -1.13,0.04 -1.68,0.12 -0.55,0.08 -1.03,0.19 -1.44,0.34 l -0.43,-2.64 c 0.19,-0.06 0.44,-0.12 0.73,-0.19 0.29,-0.07 0.61,-0.12 0.95,-0.18 0.34,-0.05 0.71,-0.1 1.09,-0.13 0.38,-0.02 0.77,-0.03 1.16,-0.03 z m 0.27,9.59 c 0.33,0 0.64,-0.01 0.94,-0.02 0.3,-0.01 0.54,-0.04 0.72,-0.07 v -2.49 c -0.13,-0.03 -0.34,-0.06 -0.61,-0.09 -0.27,-0.03 -0.52,-0.04 -0.74,-0.04 -0.31,0 -0.61,0.02 -0.89,0.06 -0.28,0.04 -0.52,0.11 -0.73,0.21 -0.21,0.1 -0.37,0.24 -0.49,0.42 -0.12,0.18 -0.18,0.4 -0.18,0.66 0,0.51 0.18,0.87 0.53,1.07 0.35,0.2 0.83,0.29 1.45,0.29 z"
         id="path50-7"
         style="fill:#0064a7;fill-opacity:1" />
      <path
         class="st1"
         d="m 151.72,73.98 c 0.27,0.48 0.58,1.08 0.93,1.79 0.35,0.71 0.72,1.48 1.1,2.31 0.38,0.83 0.76,1.68 1.14,2.54 0.38,0.86 0.73,1.68 1.06,2.44 0.33,-0.76 0.68,-1.58 1.06,-2.44 0.37,-0.87 0.75,-1.71 1.14,-2.54 0.38,-0.83 0.75,-1.6 1.1,-2.31 0.35,-0.71 0.66,-1.31 0.93,-1.79 h 3.19 c 0.15,1.01 0.29,2.15 0.42,3.4 0.13,1.25 0.24,2.56 0.34,3.92 0.1,1.36 0.19,2.72 0.27,4.08 0.08,1.36 0.15,2.65 0.21,3.85 h -3.41 c -0.04,-1.48 -0.1,-3.09 -0.18,-4.84 -0.07,-1.75 -0.19,-3.5 -0.34,-5.28 -0.27,0.62 -0.57,1.3 -0.9,2.05 -0.33,0.75 -0.66,1.5 -0.98,2.24 -0.32,0.74 -0.63,1.46 -0.93,2.15 -0.3,0.68 -0.55,1.26 -0.76,1.75 h -2.45 c -0.21,-0.48 -0.46,-1.07 -0.77,-1.75 -0.3,-0.68 -0.61,-1.4 -0.93,-2.15 -0.32,-0.75 -0.65,-1.5 -0.98,-2.24 -0.33,-0.75 -0.63,-1.43 -0.9,-2.05 -0.15,1.78 -0.26,3.54 -0.34,5.28 -0.08,1.75 -0.13,3.36 -0.18,4.84 h -3.41 c 0.06,-1.2 0.13,-2.49 0.21,-3.85 0.08,-1.36 0.17,-2.72 0.27,-4.08 0.1,-1.36 0.21,-2.66 0.34,-3.92 0.13,-1.26 0.27,-2.39 0.42,-3.4 z"
         id="path52-8"
         style="fill:#0064a7;fill-opacity:1" />
      <path
         class="st1"
         d="m 171.15,74.31 c 0,0.6 -0.2,1.08 -0.59,1.42 -0.4,0.34 -0.86,0.52 -1.4,0.52 -0.54,0 -1.01,-0.17 -1.4,-0.52 -0.4,-0.34 -0.59,-0.82 -0.59,-1.42 0,-0.6 0.2,-1.07 0.59,-1.42 0.4,-0.34 0.86,-0.52 1.4,-0.52 0.54,0 1.01,0.17 1.4,0.52 0.4,0.35 0.59,0.82 0.59,1.42 z m -0.31,14.92 H 167.5 V 77.65 h 3.34 z"
         id="path54-5"
         style="fill:#0064a7;fill-opacity:1" />
      <path
         class="st1"
         d="m 173.42,83.53 c 0,-1.03 0.16,-1.92 0.48,-2.69 0.32,-0.77 0.74,-1.41 1.27,-1.92 0.53,-0.51 1.13,-0.9 1.81,-1.17 0.68,-0.26 1.38,-0.4 2.1,-0.4 1.67,0 3,0.5 3.97,1.51 0.97,1 1.46,2.48 1.46,4.43 0,0.19 -0.01,0.4 -0.02,0.63 -0.01,0.23 -0.03,0.43 -0.04,0.6 h -7.58 c 0.07,0.67 0.4,1.21 0.96,1.61 0.57,0.4 1.33,0.59 2.29,0.59 0.61,0 1.21,-0.05 1.81,-0.17 0.6,-0.12 1.07,-0.25 1.45,-0.41 l 0.45,2.66 c -0.18,0.09 -0.42,0.18 -0.72,0.26 -0.3,0.09 -0.63,0.17 -1,0.23 -0.37,0.07 -0.76,0.12 -1.18,0.17 -0.42,0.05 -0.84,0.07 -1.26,0.07 -1.06,0 -1.99,-0.15 -2.77,-0.46 -0.79,-0.31 -1.44,-0.73 -1.95,-1.27 -0.52,-0.54 -0.9,-1.17 -1.14,-1.9 -0.24,-0.73 -0.39,-1.52 -0.39,-2.37 z m 7.86,-1.26 c -0.02,-0.28 -0.06,-0.55 -0.15,-0.81 -0.09,-0.26 -0.21,-0.5 -0.38,-0.7 -0.17,-0.21 -0.39,-0.37 -0.65,-0.51 -0.26,-0.14 -0.59,-0.2 -0.98,-0.2 -0.38,0 -0.7,0.06 -0.96,0.19 -0.27,0.12 -0.49,0.29 -0.67,0.49 -0.18,0.21 -0.32,0.44 -0.42,0.72 -0.1,0.28 -0.17,0.55 -0.21,0.82 z"
         id="path56-5"
         style="fill:#0064a7;fill-opacity:1" />
      <path
         class="st1"
         d="m 185.99,93.3 c -0.21,0 -0.52,-0.02 -0.93,-0.07 -0.41,-0.05 -0.8,-0.12 -1.16,-0.24 l 0.45,-2.66 c 0.22,0.07 0.43,0.12 0.62,0.15 0.19,0.03 0.42,0.04 0.71,0.04 0.52,0 0.89,-0.15 1.1,-0.46 0.21,-0.31 0.31,-0.75 0.31,-1.34 V 77.65 h 3.34 V 88.8 c 0,1.53 -0.38,2.65 -1.14,3.39 -0.77,0.74 -1.87,1.11 -3.3,1.11 z m 4.75,-18.99 c 0,0.6 -0.2,1.08 -0.59,1.42 -0.4,0.34 -0.86,0.52 -1.4,0.52 -0.54,0 -1.01,-0.17 -1.4,-0.52 -0.4,-0.34 -0.59,-0.82 -0.59,-1.42 0,-0.6 0.2,-1.07 0.59,-1.42 0.4,-0.34 0.86,-0.52 1.4,-0.52 0.54,0 1.01,0.17 1.4,0.52 0.4,0.35 0.59,0.82 0.59,1.42 z"
         id="path58-7"
         style="fill:#0064a7;fill-opacity:1" />
      <path
         class="st1"
         d="m 196.96,86.87 c 0.61,0 1.05,-0.06 1.3,-0.18 0.25,-0.12 0.38,-0.34 0.38,-0.68 0,-0.26 -0.17,-0.5 -0.49,-0.69 -0.33,-0.2 -0.83,-0.42 -1.5,-0.67 -0.52,-0.19 -1,-0.39 -1.43,-0.59 -0.43,-0.21 -0.79,-0.45 -1.09,-0.74 -0.3,-0.29 -0.53,-0.63 -0.7,-1.02 -0.17,-0.4 -0.25,-0.87 -0.25,-1.43 0,-1.09 0.41,-1.94 1.23,-2.57 0.82,-0.63 1.95,-0.95 3.39,-0.95 0.72,0 1.41,0.06 2.06,0.19 0.66,0.12 1.18,0.26 1.57,0.41 l -0.58,2.55 c -0.39,-0.13 -0.81,-0.25 -1.27,-0.35 -0.46,-0.1 -0.97,-0.15 -1.54,-0.15 -1.05,0 -1.57,0.29 -1.57,0.86 0,0.13 0.02,0.25 0.07,0.35 0.05,0.1 0.13,0.2 0.27,0.3 0.13,0.1 0.32,0.2 0.55,0.31 0.23,0.11 0.53,0.23 0.89,0.37 0.73,0.27 1.34,0.53 1.82,0.79 0.48,0.26 0.86,0.54 1.13,0.84 0.28,0.3 0.47,0.63 0.58,1 0.11,0.37 0.17,0.79 0.17,1.27 0,1.14 -0.44,2 -1.31,2.59 -0.88,0.58 -2.11,0.88 -3.71,0.88 -1.05,0 -1.92,-0.09 -2.61,-0.26 -0.7,-0.18 -1.18,-0.32 -1.45,-0.44 l 0.56,-2.66 c 0.57,0.22 1.15,0.39 1.75,0.52 0.6,0.09 1.2,0.15 1.78,0.15 z"
         id="path60-2"
         style="fill:#0064a7;fill-opacity:1" />
      <path
         class="st1"
         d="m 207.8,81.81 c 0.33,-0.35 0.67,-0.71 1.02,-1.09 0.35,-0.38 0.69,-0.75 1.02,-1.13 0.33,-0.37 0.64,-0.73 0.93,-1.06 0.29,-0.33 0.54,-0.63 0.75,-0.87 h 3.98 c -0.79,0.89 -1.57,1.75 -2.32,2.56 -0.76,0.81 -1.58,1.65 -2.48,2.51 0.45,0.4 0.91,0.87 1.39,1.42 0.48,0.55 0.94,1.12 1.39,1.71 0.45,0.59 0.86,1.17 1.23,1.76 0.37,0.59 0.69,1.12 0.94,1.61 h -3.84 c -0.24,-0.38 -0.51,-0.8 -0.82,-1.27 -0.31,-0.46 -0.63,-0.93 -0.97,-1.39 -0.34,-0.46 -0.71,-0.91 -1.09,-1.33 -0.38,-0.43 -0.76,-0.79 -1.13,-1.08 v 5.07 h -3.34 V 72.68 l 3.34,-0.53 z"
         id="path62-6"
         style="fill:#0064a7;fill-opacity:1" />
      <path
         class="st1"
         d="m 221.46,77.35 c 0.99,0 1.81,0.11 2.47,0.33 0.66,0.22 1.19,0.54 1.58,0.95 0.4,0.41 0.68,0.91 0.84,1.5 0.16,0.59 0.25,1.24 0.25,1.96 v 6.82 c -0.48,0.1 -1.14,0.22 -2,0.36 -0.85,0.14 -1.88,0.21 -3.1,0.21 -0.76,0 -1.46,-0.07 -2.08,-0.2 -0.62,-0.13 -1.16,-0.35 -1.6,-0.65 -0.45,-0.3 -0.79,-0.69 -1.03,-1.18 -0.24,-0.48 -0.36,-1.08 -0.36,-1.78 0,-0.67 0.14,-1.25 0.42,-1.72 0.28,-0.47 0.65,-0.84 1.11,-1.12 0.46,-0.28 0.99,-0.48 1.59,-0.61 0.6,-0.12 1.22,-0.19 1.86,-0.19 0.43,0 0.82,0.02 1.16,0.05 0.34,0.04 0.61,0.08 0.82,0.14 v -0.31 c 0,-0.56 -0.17,-1 -0.52,-1.34 -0.34,-0.34 -0.94,-0.51 -1.79,-0.51 -0.57,0 -1.13,0.04 -1.68,0.12 -0.55,0.08 -1.03,0.19 -1.44,0.34 l -0.43,-2.64 c 0.19,-0.06 0.44,-0.12 0.73,-0.19 0.29,-0.07 0.61,-0.12 0.95,-0.18 0.34,-0.05 0.71,-0.1 1.09,-0.13 0.39,-0.02 0.77,-0.03 1.16,-0.03 z m 0.27,9.59 c 0.33,0 0.64,-0.01 0.94,-0.02 0.3,-0.01 0.54,-0.04 0.72,-0.07 v -2.49 c -0.13,-0.03 -0.34,-0.06 -0.61,-0.09 -0.27,-0.03 -0.52,-0.04 -0.74,-0.04 -0.31,0 -0.61,0.02 -0.89,0.06 -0.28,0.04 -0.52,0.11 -0.73,0.21 -0.21,0.1 -0.37,0.24 -0.49,0.42 -0.12,0.18 -0.18,0.4 -0.18,0.66 0,0.51 0.18,0.87 0.53,1.07 0.35,0.2 0.84,0.29 1.45,0.29 z"
         id="path64-3"
         style="fill:#0064a7;fill-opacity:1" />
      <path
         class="st1"
         d="m 154.56,107.58 c -0.3,1.11 -0.62,2.22 -0.95,3.32 -0.34,1.1 -0.69,2.21 -1.07,3.32 h -2.6 c -0.27,-0.62 -0.56,-1.35 -0.88,-2.2 -0.32,-0.85 -0.64,-1.78 -0.98,-2.78 -0.34,-1 -0.68,-2.07 -1.04,-3.19 -0.36,-1.12 -0.69,-2.25 -1.02,-3.4 h 3.52 c 0.12,0.53 0.25,1.1 0.4,1.73 0.14,0.62 0.29,1.26 0.45,1.92 0.16,0.66 0.32,1.32 0.5,1.99 0.17,0.67 0.35,1.31 0.53,1.92 0.19,-0.65 0.38,-1.3 0.57,-1.98 0.19,-0.67 0.37,-1.34 0.54,-1.99 0.17,-0.65 0.34,-1.28 0.49,-1.89 0.16,-0.61 0.29,-1.18 0.42,-1.7 h 2.42 c 0.12,0.53 0.25,1.1 0.4,1.7 0.15,0.61 0.31,1.24 0.47,1.89 0.16,0.65 0.34,1.32 0.52,1.99 0.18,0.67 0.37,1.33 0.56,1.98 0.18,-0.62 0.36,-1.26 0.54,-1.92 0.18,-0.67 0.35,-1.33 0.51,-1.99 0.16,-0.66 0.31,-1.3 0.45,-1.92 0.14,-0.62 0.27,-1.2 0.4,-1.73 h 3.48 c -0.33,1.14 -0.67,2.28 -1.02,3.4 -0.35,1.12 -0.7,2.19 -1.04,3.19 -0.34,1 -0.67,1.93 -0.99,2.78 -0.32,0.85 -0.62,1.58 -0.89,2.2 h -2.6 c -0.37,-1.11 -0.74,-2.22 -1.1,-3.32 -0.36,-1.1 -0.69,-2.2 -0.99,-3.32 z"
         id="path66-9"
         style="fill:#0064a7;fill-opacity:1" />
      <path
         class="st1"
         d="m 179.74,114.23 c -0.32,-0.5 -0.69,-1.03 -1.11,-1.61 -0.42,-0.58 -0.89,-1.16 -1.38,-1.74 -0.49,-0.58 -1.01,-1.15 -1.55,-1.68 -0.54,-0.53 -1.08,-1.01 -1.62,-1.42 v 6.46 h -3.5 V 98.98 h 3.5 v 5.73 c 0.9,-0.93 1.81,-1.9 2.74,-2.91 0.93,-1.01 1.79,-1.95 2.57,-2.82 h 4.15 c -1.06,1.24 -2.12,2.42 -3.19,3.56 -1.07,1.14 -2.2,2.29 -3.38,3.44 1.24,1.02 2.44,2.22 3.6,3.62 1.16,1.4 2.27,2.94 3.33,4.62 h -4.16 z"
         id="path68-7"
         style="fill:#0064a7;fill-opacity:1" />
      <path
         class="st1"
         d="m 192.81,105.56 c -0.3,-0.07 -0.65,-0.15 -1.05,-0.23 -0.4,-0.08 -0.84,-0.12 -1.3,-0.12 -0.21,0 -0.46,0.02 -0.75,0.05 -0.29,0.04 -0.51,0.08 -0.66,0.12 v 8.84 h -3.34 v -10.96 c 0.6,-0.21 1.31,-0.4 2.12,-0.58 0.82,-0.18 1.72,-0.27 2.73,-0.27 0.18,0 0.4,0.01 0.65,0.03 0.25,0.02 0.51,0.05 0.76,0.09 0.25,0.04 0.51,0.08 0.76,0.13 0.25,0.05 0.47,0.11 0.65,0.19 z"
         id="path70-0"
         style="fill:#0064a7;fill-opacity:1" />
      <path
         class="st1"
         d="m 199.18,102.35 c 0.99,0 1.81,0.11 2.47,0.33 0.66,0.22 1.19,0.54 1.58,0.95 0.4,0.41 0.68,0.91 0.84,1.5 0.16,0.59 0.25,1.24 0.25,1.96 v 6.82 c -0.48,0.1 -1.14,0.22 -2,0.36 -0.85,0.14 -1.88,0.21 -3.1,0.21 -0.76,0 -1.46,-0.07 -2.08,-0.2 -0.62,-0.13 -1.16,-0.35 -1.6,-0.65 -0.45,-0.3 -0.79,-0.69 -1.03,-1.18 -0.24,-0.48 -0.36,-1.08 -0.36,-1.78 0,-0.67 0.14,-1.25 0.42,-1.72 0.28,-0.47 0.65,-0.84 1.11,-1.12 0.46,-0.28 0.99,-0.48 1.59,-0.61 0.6,-0.12 1.22,-0.19 1.86,-0.19 0.43,0 0.82,0.02 1.16,0.05 0.34,0.04 0.61,0.08 0.82,0.14 v -0.31 c 0,-0.56 -0.17,-1 -0.52,-1.34 -0.34,-0.34 -0.94,-0.51 -1.79,-0.51 -0.57,0 -1.13,0.04 -1.68,0.12 -0.55,0.08 -1.03,0.19 -1.44,0.34 l -0.43,-2.64 c 0.19,-0.06 0.44,-0.12 0.73,-0.19 0.29,-0.07 0.61,-0.12 0.95,-0.18 0.34,-0.05 0.71,-0.1 1.09,-0.13 0.39,-0.02 0.77,-0.03 1.16,-0.03 z m 0.27,9.59 c 0.33,0 0.64,-0.01 0.94,-0.02 0.3,-0.01 0.54,-0.04 0.72,-0.07 v -2.49 c -0.13,-0.03 -0.34,-0.06 -0.61,-0.09 -0.27,-0.03 -0.52,-0.04 -0.74,-0.04 -0.31,0 -0.61,0.02 -0.89,0.06 -0.28,0.04 -0.52,0.11 -0.73,0.21 -0.21,0.1 -0.37,0.24 -0.49,0.42 -0.12,0.18 -0.18,0.4 -0.18,0.66 0,0.51 0.18,0.87 0.53,1.07 0.35,0.2 0.84,0.29 1.45,0.29 z"
         id="path72-5"
         style="fill:#0064a7;fill-opacity:1" />
      <path
         class="st1"
         d="m 210.69,106.81 c 0.33,-0.35 0.67,-0.71 1.02,-1.09 0.35,-0.38 0.69,-0.75 1.02,-1.13 0.33,-0.37 0.64,-0.73 0.93,-1.06 0.29,-0.33 0.54,-0.63 0.75,-0.87 h 3.98 c -0.79,0.89 -1.57,1.75 -2.32,2.56 -0.76,0.81 -1.58,1.65 -2.48,2.51 0.45,0.4 0.91,0.87 1.39,1.42 0.48,0.55 0.94,1.12 1.39,1.71 0.45,0.59 0.86,1.17 1.23,1.76 0.37,0.59 0.69,1.12 0.94,1.61 h -3.84 c -0.24,-0.38 -0.51,-0.8 -0.82,-1.27 -0.31,-0.46 -0.63,-0.93 -0.97,-1.39 -0.34,-0.46 -0.71,-0.91 -1.09,-1.33 -0.38,-0.43 -0.76,-0.79 -1.13,-1.08 v 5.07 h -3.34 V 97.68 l 3.34,-0.53 z"
         id="path74-7"
         style="fill:#0064a7;fill-opacity:1" />
      <path
         class="st1"
         d="m 230.57,108.42 c 0,0.91 -0.13,1.74 -0.4,2.5 -0.27,0.75 -0.66,1.4 -1.17,1.94 -0.51,0.54 -1.12,0.95 -1.83,1.24 -0.71,0.29 -1.51,0.44 -2.39,0.44 -0.87,0 -1.66,-0.15 -2.37,-0.44 -0.71,-0.29 -1.32,-0.71 -1.83,-1.24 -0.51,-0.54 -0.91,-1.18 -1.19,-1.94 -0.29,-0.76 -0.43,-1.59 -0.43,-2.5 0,-0.91 0.15,-1.74 0.44,-2.49 0.29,-0.75 0.7,-1.39 1.21,-1.91 0.52,-0.53 1.13,-0.94 1.84,-1.23 0.71,-0.29 1.48,-0.44 2.32,-0.44 0.85,0 1.63,0.15 2.35,0.44 0.71,0.29 1.32,0.7 1.83,1.23 0.51,0.53 0.91,1.17 1.19,1.91 0.28,0.74 0.43,1.58 0.43,2.49 z m -3.41,0 c 0,-1.01 -0.21,-1.81 -0.62,-2.39 -0.41,-0.58 -1,-0.87 -1.76,-0.87 -0.76,0 -1.35,0.29 -1.77,0.87 -0.42,0.58 -0.63,1.38 -0.63,2.39 0,1.01 0.21,1.81 0.63,2.41 0.42,0.59 1.01,0.89 1.77,0.89 0.76,0 1.35,-0.3 1.76,-0.89 0.42,-0.6 0.62,-1.4 0.62,-2.41 z"
         id="path76-5"
         style="fill:#0064a7;fill-opacity:1" />
      <path
         class="st1"
         d="m 240.08,107.58 c -0.3,1.11 -0.62,2.22 -0.95,3.32 -0.34,1.1 -0.69,2.21 -1.07,3.32 h -2.6 c -0.27,-0.62 -0.56,-1.35 -0.88,-2.2 -0.32,-0.85 -0.64,-1.78 -0.98,-2.78 -0.34,-1 -0.68,-2.07 -1.04,-3.19 -0.36,-1.12 -0.69,-2.25 -1.02,-3.4 h 3.52 c 0.12,0.53 0.25,1.1 0.4,1.73 0.14,0.62 0.29,1.26 0.45,1.92 0.16,0.66 0.32,1.32 0.5,1.99 0.17,0.67 0.35,1.31 0.53,1.92 0.19,-0.65 0.38,-1.3 0.57,-1.98 0.19,-0.67 0.37,-1.34 0.54,-1.99 0.17,-0.65 0.34,-1.28 0.49,-1.89 0.16,-0.61 0.29,-1.18 0.42,-1.7 h 2.42 c 0.12,0.53 0.25,1.1 0.4,1.7 0.15,0.61 0.31,1.24 0.47,1.89 0.16,0.65 0.34,1.32 0.52,1.99 0.18,0.67 0.37,1.33 0.56,1.98 0.18,-0.62 0.36,-1.26 0.54,-1.92 0.18,-0.67 0.35,-1.33 0.51,-1.99 0.16,-0.66 0.31,-1.3 0.45,-1.92 0.14,-0.62 0.27,-1.2 0.4,-1.73 h 3.48 c -0.33,1.14 -0.67,2.28 -1.02,3.4 -0.35,1.12 -0.7,2.19 -1.04,3.19 -0.34,1 -0.67,1.93 -0.99,2.78 -0.32,0.85 -0.62,1.58 -0.89,2.2 h -2.6 c -0.37,-1.11 -0.74,-2.22 -1.1,-3.32 -0.36,-1.1 -0.69,-2.2 -0.99,-3.32 z"
         id="path78-6"
         style="fill:#0064a7;fill-opacity:1" />
      <path
         class="st1"
         d="m 254.14,99.31 c 0,0.6 -0.2,1.08 -0.59,1.42 -0.4,0.34 -0.86,0.52 -1.4,0.52 -0.54,0 -1.01,-0.17 -1.4,-0.52 -0.4,-0.34 -0.59,-0.82 -0.59,-1.42 0,-0.6 0.2,-1.07 0.59,-1.42 0.4,-0.34 0.86,-0.52 1.4,-0.52 0.54,0 1.01,0.17 1.4,0.52 0.39,0.35 0.59,0.82 0.59,1.42 z m -0.32,14.92 h -3.34 v -11.57 h 3.34 z"
         id="path80-0"
         style="fill:#0064a7;fill-opacity:1" />
      <path
         class="st1"
         d="m 256.4,108.53 c 0,-1.03 0.16,-1.92 0.48,-2.69 0.32,-0.77 0.74,-1.41 1.27,-1.92 0.53,-0.51 1.13,-0.9 1.81,-1.17 0.68,-0.26 1.38,-0.4 2.1,-0.4 1.67,0 3,0.5 3.97,1.51 0.97,1 1.46,2.48 1.46,4.43 0,0.19 -0.01,0.4 -0.02,0.63 -0.01,0.23 -0.03,0.43 -0.04,0.6 h -7.58 c 0.07,0.67 0.4,1.21 0.96,1.61 0.57,0.4 1.33,0.59 2.29,0.59 0.61,0 1.21,-0.05 1.81,-0.17 0.6,-0.12 1.07,-0.25 1.45,-0.41 l 0.45,2.66 c -0.18,0.09 -0.42,0.18 -0.72,0.26 -0.3,0.09 -0.63,0.17 -1,0.23 -0.37,0.07 -0.76,0.12 -1.18,0.17 -0.42,0.05 -0.84,0.07 -1.26,0.07 -1.06,0 -1.99,-0.15 -2.77,-0.46 -0.79,-0.31 -1.44,-0.73 -1.95,-1.27 -0.52,-0.54 -0.9,-1.17 -1.14,-1.9 -0.24,-0.73 -0.39,-1.52 -0.39,-2.37 z m 7.86,-1.26 c -0.02,-0.28 -0.06,-0.55 -0.15,-0.81 -0.09,-0.26 -0.21,-0.5 -0.38,-0.7 -0.17,-0.21 -0.39,-0.37 -0.65,-0.51 -0.26,-0.14 -0.59,-0.2 -0.98,-0.2 -0.38,0 -0.7,0.06 -0.96,0.19 -0.27,0.12 -0.49,0.29 -0.67,0.49 -0.18,0.21 -0.32,0.44 -0.42,0.72 -0.1,0.28 -0.17,0.55 -0.21,0.82 z"
         id="path82-3"
         style="fill:#0064a7;fill-opacity:1" />
    </g>
  </g>
</svg>
